<?xml version="1.0" encoding="UTF-8"?>
<!DOCTYPE svg PUBLIC "-//W3C//DTD SVG 1.1//EN" "http://www.w3.org/Graphics/SVG/1.1/DTD/svg11.dtd">
<svg version="1.1" xmlns="http://www.w3.org/2000/svg" xmlns:xlink="http://www.w3.org/1999/xlink" x="0" y="0" width="605" height="825" viewBox="0, 0, 605, 825">
  <g id="Layer_1">
    <path d="M373.93,446.85 C504.925,422.675 518.835,268.95 518.835,268.95 C540.645,152.92 453.65,25.365 404.175,31.82 C390.485,8.46 339.02,-2.275 288.815,16.035 C238.615,34.34 127.15,115.665 155.96,268.95 C155.96,268.95 174.925,438.3 300.865,446.85" fill="#73453C"/>
    <path d="M525.625,688.285 C525.2,657.855 523.76,623.35 519.925,598.3 C512.69,551.01 505.45,544.9 488.68,534.865 C458.48,516.805 388.05,491.115 388.05,491.115 C388.05,491.115 374.925,472.365 359.3,467.365 L315.55,465.49 C298.05,470.49 287.115,490.175 287.115,490.175 C287.115,490.175 220.07,515.94 189.87,534 C189.87,534 174.61,541.315 160.965,561.635 C151.135,576.275 119.285,640.18 119.285,640.18 C119.285,640.18 132.08,655.595 139.285,665.805 C150.535,681.745 166.785,713.93 166.785,713.93 L198.975,675.495 L213.485,755.03 L461.77,756.965 L525.625,688.285" fill="#FFFFFE"/>
    <path d="M309.46,485.96 L313.2,483.49 C317.87,475.99 319.44,462.115 319.95,454.945 L355.06,454.61 C355.54,461.68 357.09,475.87 361.835,483.49 L366.175,486.425 C366.175,486.425 350.435,519.705 335.755,523.715 C324.045,516.06 306.07,490.28 309.46,485.96" fill="#F8D2B5"/>
    <path d="M318.13,455.52 L357.69,455.52 L357.69,464.9 C357.69,464.9 345.615,483.175 314.725,476.925 L318.13,455.52" fill="#DB9D88"/>
    <path d="M208.3,725.12 L225.1,822.005 L449.755,822.005 L476.185,672.285 C420.32,736.09 294.075,758.67 208.3,725.12" fill="#D7E2EC"/>
    <path d="M40.885,451.87 C40.885,451.87 23.195,399.845 14.79,382.21 C6.4,364.56 14.235,355.265 23.225,361.975 C29.28,366.485 39.125,374.895 44.595,398.245 C49.75,420.215 57.165,445.755 57.165,445.755 L40.885,451.87" fill="#F8D2B5"/>
    <g>
      <path d="M40.435,451.76 C40.435,451.76 22.525,399.835 14.355,382.11 C4.815,361.37 14.04,355.55 23.225,361.975 C31.175,367.54 37.36,373.73 44.595,398.245 C50.99,419.885 56.725,445.64 56.725,445.64" fill-opacity="0" stroke="#1A1919" stroke-width="7" stroke-linecap="round" stroke-linejoin="round"/>
      <path d="M90.805,543.89 C104.685,524.84 107.28,501.49 105.39,491.445 C103.325,480.445 104.75,464.6 106,453.45 C107.275,442.31 99.76,444.775 90.965,459.06 L87.34,468.865 C91.36,443.505 71.985,436.98 51.03,438.97 C30.075,440.96 18.05,456.015 18.05,456.015 L15.59,457.76 C7.505,464.66 7.185,475.79 7.185,475.79 L5.29,478.175 C-5.52,493.165 39.845,547.135 51.43,559.275 C51.43,559.275 57.725,592.37 59.6,602.68 C61.475,612.995 78.66,711.43 81.475,720.805 C84.285,730.18 92.725,751.43 100.535,753.305 C108.35,755.18 120.225,754.555 124.285,750.495 C128.35,746.43 162.41,704.245 162.41,704.245 L126.475,647.37 L118.66,656.12 L93.35,549.87 C93.35,549.87 89.44,545.765 90.805,543.89" fill="#F8D2B5"/>
    </g>
    <path d="M84.695,475.59 C84.695,475.59 72.78,495.07 62.185,498.605 C62.185,498.605 58.6,504.975 42.27,507.12 C42.27,507.12 68.715,520.685 71.495,530.29 C71.495,530.29 66.89,501.205 86.715,493.77 L84.695,475.59" fill="#D39985"/>
    <path d="M126.575,650.285 L120.325,658.2 C120.325,658.2 123.66,676.95 124.075,676.535 C132.41,681.535 152.51,706.395 154.495,713.2 L160.745,702.37 C160.745,702.37 134.075,657.37 126.575,650.285" fill="#DB9D88"/>
    <g>
      <path d="M25.225,491.25 C36.625,492.445 47.895,487.365 47.895,487.365 C47.895,487.365 38.56,493.4 34.31,502.455 C30.755,510.03 44.5,507.565 55.73,503.705 C66.94,499.845 68.695,480.285 64,470.865 C60,462.855 22.435,461.8 6.185,476.28 C-8.29,493.165 39.835,548.225 52.82,561.59 C58.18,583.64 74.285,696.12 82.41,724.87 C85.1,734.365 96.14,760.93 115.325,755.29 C129.495,751.125 160.535,702.995 160.535,702.995 M6.75,475.68 C6.75,475.68 7.21,459.455 21.23,454.055 C32.045,450.15 58.5,449.04 70.425,454.055 C76.88,459.825 85.73,490.185 63.84,497.99 M86.03,496.29 C86.03,496.29 84.38,470.98 89.935,457.88 C95.325,445.18 106.83,442.2 105.58,453.35 C104.315,464.48 102.895,480.32 104.955,491.33 C107.025,502.335 101.995,527.04 88.255,545.29 M84.685,491.535 C84.685,491.535 71.575,500.33 71.575,528.825 M17.61,455.89 C17.61,455.89 30.315,442.79 51.03,438.97 C71.94,435.095 90.92,443.38 86.9,468.735 M90.84,543.625 C90.84,543.625 118.225,657.69 124.495,676.125 M75.045,488.565 C75.045,488.565 83.415,484.775 85.815,478.975 M119.895,657.885 L124.91,647.995 M488.68,534.865 C458.48,516.805 388.05,491.115 388.05,491.115 C388.05,491.115 374.925,472.365 359.3,467.365" fill-opacity="0" stroke="#1A1919" stroke-width="7" stroke-linecap="round" stroke-linejoin="round"/>
      <path d="M187.63,607.465 L225.1,822.005 M487.22,607.465 L449.755,822.005" fill-opacity="0" stroke="#1A1919" stroke-width="6" stroke-linecap="round" stroke-linejoin="round"/>
    </g>
    <path d="M315.55,465.49 C298.05,470.49 287.115,490.175 287.115,490.175 C287.115,490.175 220.07,515.94 189.87,534 C189.87,534 174.44,541.2 160.965,561.635 C149.495,579.035 118.91,638.92 118.91,638.92 C118.91,638.92 149.525,674.215 166.52,715.15 L198.66,674.035" fill-opacity="0" stroke="#1A1919" stroke-width="7" stroke-linecap="round" stroke-linejoin="round"/>
    <path d="M398.05,607.05 L464.925,607.05 L464.925,657.675 L398.05,657.675 z" fill="#FFFFFE"/>
    <path d="M398.05,607.05 L464.925,607.05 L464.925,657.675 L398.05,657.675 z" fill-opacity="0" stroke="#1A1919" stroke-width="6" stroke-linecap="round" stroke-linejoin="round"/>
    <path d="M406.8,615.8 L455.55,615.8 L455.55,623.925 L406.8,623.925 z" fill="#B4B5B4"/>
    <path d="M351.595,805.05 C351.595,808.03 349.18,810.445 346.195,810.445 C343.22,810.445 340.8,808.03 340.8,805.05 C340.8,802.065 343.22,799.65 346.195,799.65 C349.18,799.65 351.595,802.065 351.595,805.05 z M351.595,749.635 C351.595,752.615 349.18,755.03 346.195,755.03 C343.22,755.03 340.8,752.615 340.8,749.635 C340.8,746.65 343.22,744.235 346.195,744.235 C349.18,744.235 351.595,746.65 351.595,749.635 z" fill-opacity="0" stroke="#1A1919" stroke-width="5" stroke-linecap="round" stroke-linejoin="round"/>
    <path d="M347.825,574.7 C347.825,579.635 343.825,583.64 338.885,583.64 C333.955,583.64 329.95,579.635 329.95,574.7 C329.95,569.765 333.955,565.765 338.885,565.765 C343.825,565.765 347.825,569.765 347.825,574.7 z" fill-opacity="0" stroke="#1A1919" stroke-width="5"/>
    <path d="M298.28,39.785 C346.75,21.48 396.43,32.215 409.65,55.565 C422.28,47.795 477.945,77.915 503.97,142.595 C482.73,61.83 415.96,23.515 401.88,32.175 C388.665,8.815 338.985,-1.92 290.515,16.395 C242.05,34.7 126.205,105.195 154.02,258.49 L158.05,267.24 C145.945,122.24 251.98,57.27 298.28,39.785" fill="#CA9F8D"/>
    <path d="M239.095,58.125 C239.095,58.125 280.32,97.51 349.195,97.745 C349.195,97.745 368.755,103.165 333.49,105.325 C298.22,107.51 236.86,101.82 214.505,87.425 L239.095,58.125" fill="#CA9F8D"/>
    <path d="M192.76,276.175 C196.295,319.095 209.85,366.435 229.465,393.3 C258.85,433.53 313.805,456.195 337.51,456.195 C361.21,456.195 416.175,433.53 445.55,393.3 C464.275,367.66 477.28,323.03 481.41,284.025 C442.725,227.765 401.185,136.615 404.425,105.57 C404.425,105.57 376.085,201.81 293.99,216.5 C293.99,216.5 348.765,179.32 350.015,133.07 C350.015,133.07 312.085,210.57 232.3,219.945 C232.3,219.945 273.755,172.445 270.635,141.82 C270.635,141.82 214.39,177.445 192.76,276.175" fill="#F8D2B5"/>
    <path d="M309.085,267.24 C309.085,286.955 294.35,302.95 276.17,302.95 C257.985,302.95 243.25,286.955 243.25,267.24 C243.25,247.5 257.985,231.525 276.17,231.525 C294.35,231.525 309.085,247.5 309.085,267.24" fill="#FFFFFE"/>
    <path d="M242.955,261.39 C242.955,261.39 246.415,238.77 269.96,232.49 C297.52,225.15 304.585,250.08 304.585,250.08 C304.585,250.08 290.235,240.52 273.145,244.425 C257.025,248.115 242.955,261.39 242.955,261.39" fill="#D8E9F1"/>
    <path d="M365.935,267.24 C365.935,286.955 380.675,302.95 398.855,302.95 C417.04,302.95 431.77,286.955 431.77,267.24 C431.77,247.5 417.04,231.525 398.855,231.525 C380.675,231.525 365.935,247.5 365.935,267.24" fill="#FFFFFE"/>
    <path d="M432.07,261.39 C432.07,261.39 428.61,238.77 405.06,232.49 C377.5,225.15 370.44,250.08 370.44,250.08 C370.44,250.08 384.785,240.52 401.88,244.425 C418,248.115 432.07,261.39 432.07,261.39" fill="#D8E9F1"/>
    <path d="M212.69,323.5 C212.69,330.95 224.59,336.985 239.27,336.985 C253.945,336.985 265.855,330.95 265.855,323.5 C265.855,316.055 253.945,310.025 239.27,310.025 C224.59,310.025 212.69,316.055 212.69,323.5" fill="#EB9294"/>
    <path d="M408.78,323.5 C408.78,330.95 420.68,336.985 435.355,336.985 C450.03,336.985 461.945,330.95 461.945,323.5 C461.945,316.055 450.03,310.025 435.355,310.025 C420.68,310.025 408.78,316.055 408.78,323.5" fill="#EB9294"/>
    <path d="M337.425,332.07 L337.425,324.64" fill-opacity="0" stroke="#1A1919" stroke-width="7" stroke-linecap="round" stroke-linejoin="round"/>
    <path d="M371.89,204.74 C371.89,204.74 404.425,180.99 424.9,209.635" fill-opacity="0" stroke="#1A1919" stroke-width="6" stroke-linecap="round" stroke-linejoin="round"/>
    <path d="M305.85,252.115 C305.85,252.115 297.19,222.975 270.155,229.82 C240.6,237.325 243.03,277.665 243.03,277.665" fill-opacity="0" stroke="#1A1919" stroke-width="7" stroke-linecap="round" stroke-linejoin="round"/>
    <path d="M241.94,266.955 L232.3,264.685" fill-opacity="0" stroke="#1A1919" stroke-width="6" stroke-linecap="round" stroke-linejoin="round"/>
    <path d="M369.175,252.115 C369.175,252.115 377.83,222.975 404.87,229.82 C434.425,237.325 431.99,277.665 431.99,277.665" fill-opacity="0" stroke="#1A1919" stroke-width="7" stroke-linecap="round" stroke-linejoin="round"/>
    <path d="M433.085,266.955 L442.725,264.685" fill-opacity="0" stroke="#1A1919" stroke-width="6" stroke-linecap="round" stroke-linejoin="round"/>
    <path d="M318.57,454.945 C318.02,462.115 316.33,475.99 311.285,483.49 C311.285,483.49 317.26,512.325 337.585,523.25 C337.585,523.25 360.445,511.055 363.735,483.49 C358.62,475.87 356.95,461.68 356.43,454.61 M390.965,439.345 C510.235,405.785 518.835,268.95 518.835,268.95 C540.645,152.92 453.65,25.365 404.175,31.82 C390.485,8.46 339.02,-2.275 288.815,16.035 C238.615,34.34 127.15,115.665 155.96,268.95 C155.96,268.95 168.48,419.805 289.3,441.845" fill-opacity="0" stroke="#1A1919" stroke-width="7" stroke-linecap="round" stroke-linejoin="round"/>
    <path d="M300.535,269.795 C300.535,285.14 293.09,297.59 283.915,297.59 C274.735,297.59 267.285,285.14 267.285,269.795 C267.285,254.425 274.735,241.975 283.915,241.975 C293.09,241.975 300.535,254.425 300.535,269.795" fill="#1A1919"/>
    <path d="M299.89,259.425 C299.89,262.715 297.245,265.38 293.985,265.38 C290.725,265.38 288.085,262.715 288.085,259.425 C288.085,256.125 290.725,253.45 293.985,253.45 C297.245,253.45 299.89,256.125 299.89,259.425" fill="#FFFFFE"/>
    <path d="M374.49,269.795 C374.49,285.14 381.935,297.59 391.11,297.59 C400.295,297.59 407.74,285.14 407.74,269.795 C407.74,254.425 400.295,241.975 391.11,241.975 C381.935,241.975 374.49,254.425 374.49,269.795" fill="#1A1919"/>
    <path d="M407.09,259.425 C407.09,262.715 404.45,265.38 401.18,265.38 C397.93,265.38 395.29,262.715 395.29,259.425 C395.29,256.125 397.93,253.45 401.18,253.45 C404.45,253.45 407.09,256.125 407.09,259.425" fill="#FFFFFE"/>
    <path d="M192.76,276.175 C196.295,319.095 209.85,366.435 229.465,393.3 C258.85,433.53 313.805,456.195 337.51,456.195 C361.21,456.195 416.175,433.53 445.55,393.3 C464.275,367.66 477.28,323.03 481.41,284.025 C442.725,231.525 401.185,136.615 404.425,105.57 C404.425,105.57 376.085,201.81 293.99,216.5 C293.99,216.5 348.765,179.32 350.015,133.07 C350.015,133.07 312.085,210.57 232.3,219.945 C232.3,219.945 273.755,172.445 270.635,141.82 C270.635,141.82 214.39,177.445 192.76,276.175 z" fill-opacity="0" stroke="#1A1919" stroke-width="7" stroke-linecap="round" stroke-linejoin="round"/>
    <path d="M441.295,483.52 L293.47,695.22 L457.33,806.85 L600.755,597.445 L441.295,483.52" fill="#9E9F9E"/>
    <path d="M441.295,483.52 L293.47,695.22 L457.33,806.85 L600.755,597.445 L441.295,483.52 z M287.115,490.175 C287.115,490.175 269.895,533.105 280.89,553.565 C294.325,578.565 329.4,552.16 337.585,523.25 M388.05,491.115 C388.05,491.115 405.275,534.045 394.275,554.505 C380.84,579.505 345.765,552.16 337.585,523.25" fill-opacity="0" stroke="#1A1919" stroke-width="7" stroke-linecap="round" stroke-linejoin="round"/>
    <path d="M448.8,611.94 C448.8,611.94 502.73,668.835 525.015,692.195 C542.52,710.545 554.87,723.905 551.925,743.805 C549.235,761.94 521.555,774.96 498.11,753.01 C477.845,734.065 414.52,640.795 414.52,640.795" fill="#F8D2B5"/>
    <path d="M448.8,611.94 C448.8,611.94 502.73,668.835 525.015,692.195 C542.52,710.545 554.87,723.905 551.925,743.805 C549.235,761.94 521.555,774.96 498.11,753.01 C477.845,734.065 414.52,640.795 414.52,640.795" fill-opacity="0" stroke="#1A1919" stroke-width="7" stroke-linecap="round" stroke-linejoin="round"/>
    <path d="M417.83,639.455 C397.35,634.44 371.5,622.35 361.85,607.185 C352.745,592.87 354.665,586.29 357.12,580.83 C364.07,565.365 363.645,565.55 372.785,550.115 C372.785,550.115 371.71,534.355 379.815,529.8 C390.825,523.615 396.87,533.605 403.035,540.895 C403.035,540.895 403.69,525.93 409.565,521.105 C416.735,515.195 416.85,534.83 431.04,550.365 C434.42,554.065 445.945,564.17 449.04,578.265 C451.9,591.24 448.005,614.345 448.005,614.345" fill="#F8D2B5"/>
    <path d="M417.83,639.455 C397.35,634.44 371.5,622.35 361.85,607.185 C352.745,592.87 354.665,586.29 357.12,580.83 C364.07,565.365 363.645,565.55 372.785,550.115 C372.785,550.115 371.71,534.355 379.815,529.8 C390.825,523.615 396.87,533.605 403.035,540.895 C403.035,540.895 403.69,525.93 409.565,521.105 C416.735,515.195 416.85,534.83 431.04,550.365 C434.42,554.065 445.945,564.17 449.04,578.265 C451.9,591.24 448.005,614.345 448.005,614.345" fill-opacity="0" stroke="#1A1919" stroke-width="7" stroke-linecap="round" stroke-linejoin="round"/>
    <path d="M401.19,538.315 C401.19,538.315 416.225,557.71 424.205,569.22" fill="#F8D2B5"/>
    <path d="M401.19,538.315 C401.19,538.315 416.225,557.71 424.205,569.22 M283.92,361.44 C283.92,361.44 302.64,393.3 336.77,393.3 C370.935,393.3 389.63,361.44 389.63,361.44" fill-opacity="0" stroke="#1A1919" stroke-width="7" stroke-linecap="round" stroke-linejoin="round"/>
  </g>
</svg>
